<svg width="75" height="64" viewBox="0 0 75 64" fill="none" xmlns="http://www.w3.org/2000/svg">
    <g clip-path="url(#clip0_471_262)">
        <path d="M15.9078 6.91614H7.09082V12.0258C9.84614 12.0774 12.8376 12.1807 15.9078 12.2323V6.91614Z" fill="#3879f8"/>
        <path d="M27.0079 12.4903V6.91614H18.1909V12.2839C20.9462 12.3871 23.7803 12.4387 26.693 12.5419H27.0079V12.4903Z" fill="#3879f8"/>
        <path d="M38.0294 6.91614H29.2124V12.5419H38.0294V6.91614Z" fill="#3879f8"/>
        <path d="M15.9078 0H7.09082V5.62581H15.9078V0Z" fill="#3879f8"/>
        <path d="M27.0865 0H18.2695V5.62581H27.0865V0Z" fill="#3879f8"/>
        <path d="M69.7781 44.9033C67.81 43.9742 65.6058 43.5613 63.7164 43.871C63.0079 43.0452 61.827 42.1162 60.2526 41.4452C65.527 38.6065 69.0696 35.0452 69.9355 31.2775C70.9589 27.0452 68.0462 22.7613 67.1015 21.5226C69.7781 20.4388 71.1951 19.5097 71.6675 18.271C72.2185 16.7742 70.8015 15.0194 69.6206 14.4517C69.5419 15.3291 68.9909 15.8968 67.7313 16.5162C66.7079 17.0323 64.1887 17.4968 63.9526 19.0968C62.2206 18.7871 60.5675 19.6646 59.4653 19.9742C58.2845 20.2839 56.4738 20.4388 55.5292 20.3871C56.1589 21.6259 56.8675 22.5549 58.9143 23.0194C60.6462 23.4323 62.8504 22.7613 65.2909 22.142C65.7632 22.6065 66.393 25.0323 65.7632 26.3742C64.7398 28.4388 57.1036 28.6452 42.8547 28.3355C21.5207 27.9226 1.28874 26.4775 0.737671 29.6775C0.422778 31.2775 0.265331 34.5807 3.57171 38.6065C7.82278 43.7678 17.5058 47.6388 29.7866 47.7936C33.5653 47.8452 37.2653 47.6388 40.7292 47.1742C43.327 48.0517 45.6887 48.7742 48.2079 49.1871C52.3802 49.9097 56.0802 49.7033 57.6547 49.2388C59.2292 48.7742 57.6547 48.413 56.1589 48.2581C54.7419 48.1033 51.1994 46.4 47.4994 45.9871C51.7504 45.0065 55.6079 43.6646 58.8355 42.0646C60.6462 42.7871 61.9845 43.7678 62.4568 44.6452L62.7717 45.213L63.6377 45.0065C65.1334 44.6452 67.1015 44.9033 68.8334 45.7291C70.8015 46.6581 71.9036 48.0517 71.7462 49.3936C71.5887 50.7871 70.7228 51.9742 69.227 52.7484C67.3377 53.6775 64.5824 54.0388 61.4334 53.6259L60.41 53.5226L60.3313 54.1936C60.3313 54.6065 59.7802 55.0194 58.993 55.3291C57.8121 55.7936 56.3951 55.8968 55.4504 55.5871L54.8206 55.3807L54.3483 55.8452C52.7738 57.2388 50.0185 58.013 46.7909 57.9613C44.9802 57.9097 43.2483 57.6001 41.8313 57.0839C41.6738 55.9484 40.8079 54.9162 39.3909 54.2452C38.1313 53.6259 36.6355 53.3162 34.9824 53.4194C34.1164 52.1291 32.227 51.2517 30.0228 51.2517C29.5504 51.2517 29.1568 51.2517 28.7632 51.3549C27.5036 50.2194 25.5355 49.4452 23.3313 49.2388C20.4972 48.9807 17.8994 49.6517 16.1675 50.942C15.0653 50.5807 14.0419 50.013 13.4121 49.2904C12.9398 48.7226 12.31 47.5871 13.4121 46.2968L11.8377 45.6775C10.6568 46.9678 10.6568 48.4646 11.8377 49.8065C12.6249 50.6839 13.727 51.4065 15.1441 51.871C14.7504 52.3355 14.5143 52.8517 14.3568 53.4194C14.3568 53.5226 14.3568 53.5742 14.2781 53.6775C11.7589 54.0904 10.027 55.4839 9.79086 57.1871C9.55469 59.3549 11.8377 60.8517 14.0419 61.471C15.1441 61.7807 16.5611 61.8323 17.6632 61.6775C19.0802 62.9162 21.4419 63.742 24.276 63.9484C24.7483 64.0001 25.2206 64.0001 25.7717 64.0001C27.2675 64.0001 28.8419 63.7936 30.2589 63.4839C31.9121 63.071 33.4079 62.5033 34.4313 61.7807C36.8717 61.6775 38.9972 61.0581 40.4143 60.0259C41.1228 59.5097 41.5951 58.942 41.8313 58.3742C43.327 58.8388 45.0589 59.0968 46.8696 59.1484C47.027 59.1484 47.1845 59.1484 47.3419 59.1484C50.6483 59.1484 53.5611 58.3226 55.5292 56.9291C56.9462 57.1871 58.6781 57.0323 60.0951 56.4646C61.0398 56.1033 61.7483 55.5871 62.0632 55.0194C65.3696 55.2775 68.2824 54.8646 70.4079 53.8323C72.2972 52.8517 73.3994 51.4065 73.6355 49.6517C73.6355 47.8452 72.2185 46.0388 69.7781 44.9033ZM25.1419 38.0904C26.1653 38.0904 26.9526 38.6065 26.9526 39.2775C26.9526 39.9484 26.1653 40.4646 25.1419 40.4646C24.1185 40.4646 23.3313 39.9484 23.3313 39.2775C23.2526 38.6581 24.1185 38.0904 25.1419 38.0904ZM18.8441 45.8323C15.6164 44.9033 11.3653 43.4581 7.74405 40.7742C8.84618 40.8775 10.027 40.9807 11.2079 40.9807C14.5143 43.2001 19.3951 45.3162 24.827 45.9871C20.4972 44.9033 16.9547 43.7162 13.5696 40.9807C14.3568 40.9807 15.0653 40.9291 15.8526 40.8775C19.8675 43.4065 25.693 45.6259 29.7866 46.1936C26.0079 45.0581 21.127 43.0452 17.9781 40.7226C18.9228 40.6194 19.7887 40.5162 20.7334 40.3613C23.5675 42.8388 30.6526 46.4517 38.6036 46.7097C29.2355 47.5871 21.5994 46.6065 18.8441 45.8323ZM38.7611 59.0452C37.6589 59.8194 35.927 60.3355 33.8802 60.3355H33.4079L33.093 60.5936C31.5972 61.7807 28.0547 62.813 24.5909 62.5033C22.0717 62.2968 20.1036 61.5226 19.1589 60.4388L18.6866 59.9226L17.8206 60.1291C17.3483 60.2323 15.8526 60.3355 15.0653 60.0775C14.2781 59.871 11.9164 58.9936 12.0738 57.1871C12.2313 55.8968 13.6483 54.9678 15.5377 54.8646L16.5611 54.813V54.142C16.5611 53.9355 16.5611 53.7291 16.6398 53.5226C17.0334 51.5613 19.9462 50.2194 23.0951 50.5291C24.9058 50.6839 26.5589 51.4065 27.4249 52.4388L27.8972 53.0065L28.7632 52.7484C29.1568 52.6452 29.6292 52.5936 30.1015 52.5936C31.676 52.5936 33.0143 53.3162 33.3292 54.2968L33.5653 54.9678L34.5887 54.813C35.927 54.6581 37.1866 54.813 38.21 55.3291C39.1547 55.7936 39.7058 56.4646 39.7845 57.1871C39.8632 57.8581 39.4696 58.5291 38.7611 59.0452Z" fill="#3879f8"/>
    </g>
    <defs>
        <clipPath id="clip0_471_262">
            <rect width="74" height="64" fill="white" transform="translate(0.242188)"/>
        </clipPath>
    </defs>
</svg>
