<svg width="64" height="64" viewBox="0 0 64 64" fill="none" xmlns="http://www.w3.org/2000/svg">
    <path d="M54.2202 17.0604C54.2091 14.1254 53.1966 11.282 51.3502 9.00043C51.977 6.39192 51.7814 3.65338 50.7902 1.16043C50.6938 0.923535 50.546 0.710975 50.3575 0.538058C50.169 0.365141 49.9445 0.23617 49.7002 0.160431C49.0002 -0.0795686 46.3502 -0.529569 40.9502 2.97043C38.6278 2.3575 36.2318 2.06811 33.8302 2.11043C31.4253 2.06757 29.026 2.35697 26.7002 2.97043C21.1602 -0.609569 18.2802 -0.0295691 17.7002 0.140431C17.4546 0.219554 17.2295 0.352034 17.041 0.528376C16.8526 0.704719 16.7055 0.920558 16.6102 1.16043C15.6166 3.64526 15.4141 6.3762 16.0302 8.98043C14.1235 11.2506 13.107 14.1364 13.1702 17.1004C13.1702 28.1604 19.5002 31.5004 25.3002 32.6804C25.0025 33.4085 24.7976 34.1712 24.6902 34.9504C24.6798 35.0334 24.6798 35.1174 24.6902 35.2004V38.2604C19.4102 38.7004 18.2802 35.6104 18.1702 35.2604C18.1446 35.1788 18.1146 35.0987 18.0802 35.0204C17.0604 32.9397 15.2652 31.342 13.0802 30.5704C12.64 30.4232 12.1593 30.457 11.7439 30.6642C11.3285 30.8714 11.0124 31.2352 10.8652 31.6754C10.718 32.1157 10.7518 32.5964 10.959 33.0118C11.1662 33.4272 11.53 33.7432 11.9702 33.8904C13.181 34.3279 14.1908 35.1918 14.8102 36.3204C15.5102 38.5904 18.3702 42.1804 24.6702 41.7804V44.6604C24.6702 45.1246 24.8546 45.5697 25.1828 45.8979C25.511 46.2261 25.9561 46.4104 26.4202 46.4104C26.8844 46.4104 27.3295 46.2261 27.6577 45.8979C27.9859 45.5697 28.1702 45.1246 28.1702 44.6604V35.3304C28.303 34.3116 28.7464 33.3583 29.4402 32.6004C29.6833 32.3729 29.8559 32.0805 29.9378 31.7578C30.0196 31.4351 30.0071 31.0957 29.9018 30.7799C29.7966 30.4641 29.6029 30.1851 29.3438 29.976C29.0848 29.767 28.7712 29.6366 28.4402 29.6004C22.3402 28.8904 16.7002 26.8804 16.7002 17.0304C16.6597 15.8415 16.8663 14.657 17.3069 13.5519C17.7475 12.4469 18.4127 11.4453 19.2602 10.6104C19.4882 10.3651 19.6456 10.0628 19.716 9.73544C19.7864 9.40807 19.7672 9.06776 19.6602 8.75043C19.0711 7.03858 19.0326 5.18525 19.5502 3.45043C21.6975 3.93522 23.7139 4.88031 25.4602 6.22043C25.6846 6.36894 25.9396 6.46494 26.2062 6.5013C26.4729 6.53766 26.7443 6.51343 27.0002 6.43043C29.2221 5.75414 31.5385 5.44012 33.8602 5.50043C36.1787 5.43998 38.4918 5.75401 40.7102 6.43043C40.9661 6.51417 41.2376 6.53877 41.5044 6.5024C41.7711 6.46602 42.0261 6.36962 42.2502 6.22043C43.9323 4.93166 45.8575 3.99625 47.9102 3.47043C48.42 5.22445 48.3746 7.09325 47.7802 8.82043C47.6823 9.10866 47.6622 9.41761 47.7219 9.71609C47.7816 10.0146 47.919 10.292 48.1202 10.5204C49.7757 12.288 50.7134 14.6089 50.7502 17.0304C50.7502 26.8604 44.8202 28.9004 39.0102 29.6004C38.6624 29.6391 38.3343 29.7818 38.0688 30.0099C37.8033 30.2379 37.6128 30.5407 37.522 30.8788C37.4313 31.2168 37.4447 31.5743 37.5603 31.9047C37.6759 32.235 37.8885 32.5228 38.1702 32.7304C38.7902 33.2004 39.5102 34.5204 39.5102 36.7304V44.6504C39.5102 45.1146 39.6946 45.5597 40.0228 45.8879C40.351 46.2161 40.7961 46.4004 41.2602 46.4004C41.7244 46.4004 42.1695 46.2161 42.4977 45.8879C42.8259 45.5597 43.0102 45.1146 43.0102 44.6504V36.7304C43.0285 35.3378 42.7737 33.9551 42.2602 32.6604C46.9602 31.6604 54.2202 28.5704 54.2202 17.0604Z" fill="#A259FF"/>
</svg>

