<svg version="1.1" id="Layer_1" xmlns="http://www.w3.org/2000/svg" x="0px" y="0px" viewBox="0 0 1300 307" style="enable-background: new 0 0 1300 307" xml:space="preserve">
  <g>
    <g>
      <path fill="#2a5189" d="M485.1,206.6c-3.2,4.8-7.1,9.4-11.7,13.7c-4.6,4.3-9.8,8.1-15.8,11.3c-6,3.3-12.6,5.9-19.8,7.8
			c-7.2,1.9-15.1,2.9-23.7,2.9c-14.3,0-27.5-2.5-39.7-7.5c-12.2-5-22.6-11.9-31.4-20.8c-8.8-8.8-15.6-19.3-20.5-31.5
			c-4.9-12.1-7.4-25.5-7.4-39.9s2.5-27.8,7.5-39.9c5-12.1,11.9-22.6,20.8-31.5c8.8-8.8,19.3-15.8,31.4-20.8
			c12.1-5,25.1-7.5,39.3-7.5c7,0,13.8,0.7,20.5,2.2c6.7,1.5,13,3.5,18.9,6.1c5.9,2.6,11.3,5.8,16.1,9.5c4.8,3.7,8.8,7.9,12.1,12.5
			l-16.1,11.8c-2-3-4.6-6.1-7.9-9.1c-3.3-3-7.2-5.7-11.7-8c-4.5-2.3-9.3-4.2-14.6-5.6c-5.3-1.4-10.9-2.1-17-2.1
			c-12.3,0-23.4,2.2-33.1,6.7c-9.7,4.5-18,10.5-24.8,18c-6.8,7.6-12,16.3-15.5,26.3c-3.6,10-5.4,20.5-5.4,31.5
			c0,11,1.8,21.5,5.5,31.5c3.7,10,8.9,18.7,15.7,26.3c6.8,7.6,15,13.6,24.8,18c9.7,4.5,20.7,6.7,32.8,6.7c10.9,0,21.3-2.2,31.1-6.7
			c9.8-4.5,18-11.6,24.7-21.4L485.1,206.6z"/>
        <path fill="#2a5189" d="M638.6,174.7c0,9.5-1.7,18.2-5,26.3c-3.3,8-7.9,15-13.8,20.9c-5.9,5.9-13,10.5-21.2,13.8
			c-8.2,3.3-17.2,5-27.1,5c-9.6,0-18.6-1.7-26.8-5c-8.2-3.3-15.3-7.9-21.2-13.8c-5.9-5.9-10.5-12.9-13.8-20.9c-3.3-8-5-16.8-5-26.3
			c0-9.5,1.6-18.2,5-26.3c3.3-8,7.9-15,13.8-20.9c5.9-5.9,13-10.5,21.2-13.8c8.2-3.3,17.2-5,26.8-5c9.8,0,18.8,1.7,27.1,5
			c8.2,3.3,15.3,7.9,21.2,13.8c5.9,5.9,10.5,12.9,13.8,20.9C637,156.5,638.6,165.2,638.6,174.7z M619.3,174.7c0-7-1.1-13.5-3.3-19.7
			c-2.2-6.2-5.4-11.5-9.5-16.1c-4.1-4.6-9.1-8.2-15-10.9c-5.9-2.7-12.5-4-19.8-4c-7.3,0-13.9,1.3-19.7,4
			c-5.8,2.7-10.8,6.3-14.9,10.9c-4.1,4.6-7.3,9.9-9.5,16.1c-2.2,6.2-3.3,12.7-3.3,19.7c0,7,1.1,13.5,3.3,19.7
			c2.2,6.2,5.4,11.5,9.5,16.1c4.1,4.6,9.1,8.1,14.9,10.7c5.8,2.6,12.4,3.9,19.7,3.9c7.3,0,13.9-1.3,19.8-3.9
			c5.9-2.6,10.9-6.2,15-10.7c4.1-4.6,7.3-9.9,9.5-16.1C618.2,188.2,619.3,181.7,619.3,174.7z"/>
        <path fill="#2a5189" d="M744.5,141.7c-2.7-5.2-6.7-9.4-12.2-12.7c-5.5-3.3-11.7-5-18.6-5c-3.2,0-6.4,0.4-9.6,1.1
			c-3.2,0.7-6.1,1.9-8.6,3.5c-2.5,1.6-4.5,3.7-6,6.2c-1.5,2.5-2.3,5.5-2.3,8.8c0,5.9,2.4,10.4,7.2,13.5c4.8,3.1,12.4,5.8,22.8,7.9
			c14.8,3,25.8,7.5,32.8,13.3c7.1,5.8,10.6,13.6,10.6,23.5c0,7.1-1.4,13.2-4.2,18.1c-2.8,4.9-6.4,8.9-10.9,12.1
			c-4.5,3.1-9.5,5.4-15.1,6.7c-5.6,1.3-11.3,2-17,2c-9.5,0-18.7-2-27.6-5.9c-8.9-3.9-16.3-10.1-22-18.5l14.5-10.7
			c3.2,5.5,7.9,10.2,14.2,13.9c6.3,3.8,13.1,5.6,20.6,5.6c3.9,0,7.7-0.4,11.3-1.1c3.6-0.7,6.7-2,9.4-3.8c2.7-1.8,4.8-4.1,6.4-6.8
			c1.6-2.8,2.4-6.2,2.4-10.3c0-6.6-3.2-11.6-9.5-14.9c-6.3-3.3-15.5-6.4-27.5-9.2c-3.8-0.9-7.7-2-11.9-3.4
			c-4.2-1.3-8.1-3.3-11.7-5.9c-3.6-2.6-6.5-5.9-8.8-9.8c-2.3-3.9-3.5-8.8-3.5-14.7c0-6.4,1.2-11.9,3.8-16.5
			c2.5-4.6,5.9-8.3,10.1-11.3c4.2-2.9,9-5.1,14.3-6.6c5.4-1.4,10.9-2.1,16.6-2.1c8.8,0,17.2,2,25.5,5.9c8.2,3.9,14.4,9.5,18.5,16.6
			L744.5,141.7z"/>
        <path fill="#2a5189" d="M853.3,127.2h-35.4v73.2c0,4.6,0.4,8.5,1.3,11.5c0.9,3,2.2,5.4,3.9,7.1c1.7,1.7,3.7,2.9,6,3.5
			c2.3,0.6,4.8,0.9,7.5,0.9c2.5,0,5.1-0.4,7.9-1.1c2.8-0.7,5.4-1.7,7.9-2.9l0.8,15.8c-3.2,1.3-6.6,2.2-10,2.8
			c-3.5,0.6-7.3,0.9-11.4,0.9c-3.4,0-7-0.4-10.7-1.3s-7.2-2.6-10.5-5.1c-3.2-2.5-5.9-5.9-7.9-10.2c-2.1-4.3-3.1-9.9-3.1-16.9v-78.3
			h-26V112h26V76.6h18.2V112h35.4V127.2z"/>
        <path fill="#2a5189" d="M882.8,47.7h56.5c7.1,0,14.4,0.8,21.7,2.3c7.3,1.5,13.9,4.1,19.7,7.8c5.8,3.7,10.5,8.6,14.2,14.9
			c3.7,6.3,5.5,14.1,5.5,23.6c0,10-3.1,18.7-9.2,26.1c-6.1,7.4-14.3,12.3-24.5,14.6v0.5c12.3,1.4,22.5,6.2,30.6,14.3
			c8.1,8.1,12.2,19.2,12.2,33.1c0,7.9-1.6,15.1-4.9,21.6c-3.3,6.5-8,12.1-14,16.6c-6.1,4.6-13.5,8.1-22.2,10.6
			c-8.7,2.5-18.5,3.8-29.4,3.8h-56.2V47.7z M902,130.7h38.9c4.6,0,9.3-0.5,14.1-1.6c4.7-1.1,9.1-2.9,13-5.5c3.9-2.6,7.1-6,9.5-10.3
			s3.6-9.6,3.6-15.8c0-6.1-1.2-11.2-3.6-15.4c-2.4-4.2-5.7-7.6-9.8-10.3c-4.1-2.7-8.9-4.6-14.5-5.8c-5.5-1.2-11.4-1.7-17.7-1.7H902
			V130.7z M902,220.8H938c7,0,13.6-0.7,20-2c6.3-1.3,11.9-3.5,16.6-6.4c4.7-2.9,8.5-6.8,11.4-11.5c2.9-4.7,4.3-10.4,4.3-17
			c0-12.5-4.2-21.8-12.7-28c-8.5-6.2-20.5-9.2-36-9.2H902V220.8z"/>
        <path fill="#2a5189" d="M1074.4,63.7c0,3.8-1.3,6.8-4,9.2c-2.7,2.4-5.6,3.6-8.8,3.6c-3.2,0-6.2-1.2-8.8-3.6s-4-5.5-4-9.2
			s1.3-6.8,4-9.2c2.7-2.4,5.6-3.6,8.8-3.6c3.2,0,6.2,1.2,8.8,3.6C1073,56.9,1074.4,60,1074.4,63.7z M1070.6,237.4h-18.2V112h18.2
			V237.4z"/>
        <path fill="#2a5189" d="M1175.7,127.2h-35.4v73.2c0,4.6,0.4,8.5,1.3,11.5c0.9,3,2.2,5.4,3.9,7.1c1.7,1.7,3.7,2.9,6,3.5
			c2.3,0.6,4.8,0.9,7.5,0.9c2.5,0,5.1-0.4,7.9-1.1c2.8-0.7,5.4-1.7,7.9-2.9l0.8,15.8c-3.2,1.3-6.6,2.2-10,2.8
			c-3.5,0.6-7.3,0.9-11.4,0.9c-3.4,0-7-0.4-10.7-1.3s-7.2-2.6-10.5-5.1c-3.2-2.5-5.9-5.9-7.9-10.2c-2.1-4.3-3.1-9.9-3.1-16.9v-78.3
			h-26V112h26V76.6h18.2V112h35.4V127.2z"/>
        <path fill="#2a5189" d="M1270.8,141.7c-2.7-5.2-6.7-9.4-12.2-12.7c-5.5-3.3-11.7-5-18.6-5c-3.2,0-6.4,0.4-9.6,1.1
			c-3.2,0.7-6.1,1.9-8.6,3.5c-2.5,1.6-4.5,3.7-6,6.2c-1.5,2.5-2.3,5.5-2.3,8.8c0,5.9,2.4,10.4,7.2,13.5c4.8,3.1,12.4,5.8,22.8,7.9
			c14.8,3,25.8,7.5,32.8,13.3c7.1,5.8,10.6,13.6,10.6,23.5c0,7.1-1.4,13.2-4.2,18.1c-2.8,4.9-6.4,8.9-10.9,12.1
			c-4.5,3.1-9.5,5.4-15.1,6.7c-5.6,1.3-11.3,2-17,2c-9.5,0-18.7-2-27.6-5.9c-8.9-3.9-16.3-10.1-22-18.5l14.5-10.7
			c3.2,5.5,7.9,10.2,14.2,13.9c6.3,3.8,13.1,5.6,20.6,5.6c3.9,0,7.7-0.4,11.3-1.1c3.6-0.7,6.7-2,9.4-3.8c2.7-1.8,4.8-4.1,6.4-6.8
			c1.6-2.8,2.4-6.2,2.4-10.3c0-6.6-3.2-11.6-9.5-14.9c-6.3-3.3-15.5-6.4-27.5-9.2c-3.8-0.9-7.7-2-11.9-3.4
			c-4.2-1.3-8.1-3.3-11.7-5.9c-3.6-2.6-6.5-5.9-8.8-9.8c-2.3-3.9-3.5-8.8-3.5-14.7c0-6.4,1.2-11.9,3.8-16.5c2.5-4.6,5.8-8.3,10-11.3
			c4.2-2.9,9-5.1,14.3-6.6c5.4-1.4,10.9-2.1,16.6-2.1c8.8,0,17.2,2,25.5,5.9c8.2,3.9,14.4,9.5,18.5,16.6L1270.8,141.7z"/>
    </g>
  </g>
    <g>
    <path fill="#2a5189" d="M62.7,263.6c60.4,46,148.1,47.4,209.9,5.9L127,197.1L62.7,263.6z"/>
        <path fill="#2a5189" d="M258.5,26.8C192-9,103.9,0.3,49,52.7c-18.8,18-31.4,38.9-38.2,61c-2.4,7.6-3.9,15.4-4.9,23.2
		c-0.3,2.4-0.5,4.7-0.6,7.1h139.9L258.5,26.8z"/>
        <path fill="#ee8022" d="M121.3,168.7l23.9-24.7H5.3c-2.4,36.9,10.8,74.3,39.5,103.8l59.8-61.8L121.3,168.7z"/>
  </g>
</svg>