<svg version="1.0" xmlns="http://www.w3.org/2000/svg"
 width="768.000000pt" height="576.000000pt" viewBox="0 0 768.000000 576.000000"
 preserveAspectRatio="xMidYMid meet">

<g transform="translate(0.000000,576.000000) scale(0.100000,-0.100000)"
fill="#ffffff" stroke="none">
<path d="M0 2875 l0 -2875 3840 0 3840 0 0 2875 0 2875 -3840 0 -3840 0 0
-2875z m2778 1815 c108 -18 171 -47 233 -109 40 -40 61 -71 73 -109 10 -29 16
-55 15 -56 -15 -13 -273 -105 -280 -100 -5 3 -9 15 -9 27 0 32 -36 86 -66 97
-65 25 -138 -1 -171 -62 -26 -48 -26 -268 0 -315 25 -48 61 -67 119 -66 63 1
99 26 114 79 13 46 8 46 179 1 136 -37 133 -33 89 -124 -46 -95 -126 -158
-241 -188 -65 -17 -226 -20 -292 -4 -118 27 -225 108 -276 209 -74 146 -71
365 6 510 87 164 285 246 507 210z m-2168 -175 l0 -165 123 0 122 0 -3 165 -3
165 166 0 165 0 0 -460 0 -460 -162 2 -163 3 -3 168 -2 167 -120 0 -120 0 0
-170 0 -170 -165 0 -165 0 0 460 0 460 165 0 165 0 0 -165z m1325 143 c4 -13
69 -216 146 -452 76 -236 139 -433 139 -438 0 -4 -74 -8 -165 -8 l-164 0 -11
43 c-6 23 -17 62 -23 87 l-13 45 -119 0 -119 0 -13 -45 c-6 -25 -17 -64 -23
-87 l-11 -43 -159 0 c-116 0 -160 3 -160 12 0 6 47 156 104 332 58 177 123
378 146 449 l41 127 199 0 c197 0 199 0 205 -22z m1577 -142 l3 -164 114 164
115 164 174 0 c171 0 174 0 161 -19 -8 -11 -64 -84 -125 -163 -61 -79 -117
-153 -124 -164 -13 -22 25 -98 265 -526 l27 -48 -184 0 -183 0 -86 171 -85
172 -37 -50 -37 -51 0 -121 0 -121 -165 0 -165 0 0 460 0 460 165 0 165 0 2
-164z m63 -1170 c191 -51 298 -193 312 -412 18 -287 -115 -472 -369 -514 -107
-17 -98 -27 -98 115 0 106 2 125 15 125 37 0 77 33 97 78 17 37 21 67 21 153
0 93 -3 114 -24 156 -20 40 -31 50 -66 61 l-43 14 0 119 0 119 53 0 c28 0 75
-6 102 -14z m-1897 -118 c-3 -114 -4 -123 -23 -126 -41 -6 -65 -26 -87 -71
-18 -38 -22 -63 -22 -146 0 -149 30 -218 101 -231 l33 -6 0 -125 0 -126 -61 7
c-145 17 -260 77 -323 169 -59 85 -78 148 -83 272 -6 119 8 199 49 285 25 52
109 139 159 166 53 28 149 53 207 53 l53 1 -3 -122z m2642 -165 c0 -171 4
-303 11 -326 21 -77 129 -102 188 -43 l26 26 3 315 3 315 165 0 165 0 -3 -327
c-3 -319 -4 -330 -27 -388 -33 -81 -107 -155 -186 -184 -183 -68 -427 -43
-554 58 -45 36 -95 126 -110 199 -7 32 -11 170 -11 347 l0 295 165 0 165 0 0
-287z m1282 276 c73 -16 139 -51 178 -95 52 -60 64 -98 64 -204 0 -79 -4 -103
-23 -142 -22 -46 -59 -85 -110 -119 l-24 -15 70 -110 c38 -60 86 -135 107
-166 l37 -58 -179 0 -179 0 -79 150 -79 150 -42 0 -43 0 0 -150 0 -150 -160 0
-160 0 0 460 0 460 285 0 c172 0 305 -4 337 -11z m-4944 -112 c28 -63 63 -145
78 -183 14 -38 27 -70 29 -72 1 -2 15 30 31 70 15 40 51 124 80 186 l53 112
161 0 161 0 -17 -32 c-9 -18 -82 -153 -160 -301 l-144 -267 0 -160 0 -160
-165 0 -165 0 0 158 0 158 -160 298 c-88 165 -160 301 -160 303 0 1 73 3 163
3 l163 0 52 -113z m1782 -1357 l0 -120 -220 0 -220 0 0 -60 0 -60 180 0 180 0
0 -120 0 -120 -177 -2 -178 -3 -3 -157 -3 -158 -159 0 -160 0 0 460 0 460 380
0 380 0 0 -120z m420 -162 c0 -163 4 -299 10 -320 15 -52 52 -78 110 -78 58 0
95 26 110 78 6 21 10 157 10 320 l0 282 166 0 166 0 -4 -312 c-5 -342 -9 -368
-67 -460 -35 -56 -92 -99 -170 -130 -50 -20 -73 -23 -211 -23 -138 0 -161 3
-211 23 -78 31 -135 74 -170 130 -58 92 -62 118 -67 460 l-4 312 166 0 166 0
0 -282z m1560 162 l0 -120 -145 0 -145 0 0 -340 0 -340 -160 0 -160 0 0 340 0
340 -145 0 -145 0 0 120 0 120 450 0 450 0 0 -120z m422 -182 c3 -322 5 -332
53 -364 34 -22 102 -20 134 4 45 33 50 66 50 375 l1 287 166 0 166 0 -4 -312
c-5 -342 -9 -368 -67 -460 -36 -56 -92 -99 -170 -130 -48 -19 -76 -22 -201
-22 -111 -1 -158 3 -201 16 -116 36 -198 117 -236 231 -13 43 -17 109 -21 365
l-4 312 165 0 166 0 3 -302z m1333 281 c88 -27 156 -91 179 -170 21 -68 20
-173 0 -233 -16 -47 -72 -115 -121 -146 -22 -15 -22 -16 82 -175 57 -88 104
-163 105 -167 0 -5 -79 -8 -175 -8 l-174 0 -34 63 c-19 34 -56 103 -83 152
-49 90 -49 90 -92 93 l-42 3 0 -155 0 -156 -160 0 -160 0 0 460 0 460 304 0
c280 0 309 -2 371 -21z m1073 -96 l-3 -118 -217 -3 -218 -2 0 -55 0 -55 175 0
175 0 0 -110 0 -110 -175 0 -175 0 0 -55 0 -55 225 0 225 0 0 -120 0 -120
-390 0 -390 0 0 460 0 460 385 0 386 0 -3 -117z"/>
<path d="M1692 4302 c-18 -76 -32 -143 -32 -149 0 -9 21 -13 71 -13 62 0 70 2
65 18 -3 9 -19 75 -36 147 -17 71 -32 130 -33 131 -1 1 -17 -59 -35 -134z"/>
<path d="M5300 3033 l0 -83 85 0 c78 0 88 2 110 25 29 28 33 80 11 111 -12 16
-30 20 -110 24 l-96 5 0 -82z"/>
<path d="M5820 1675 l0 -88 90 5 c109 7 130 20 130 83 0 65 -23 79 -131 83
l-89 4 0 -87z"/>
</g>
</svg>
